<?xml version="1.0" encoding="utf-8"?>
<!-- Generator: Adobe Illustrator 16.0.0, SVG Export Plug-In . SVG Version: 6.00 Build 0)  -->
<!DOCTYPE svg PUBLIC "-//W3C//DTD SVG 1.1//EN" "http://www.w3.org/Graphics/SVG/1.1/DTD/svg11.dtd">
<svg version="1.1" id="Layer_1" xmlns="http://www.w3.org/2000/svg" xmlns:xlink="http://www.w3.org/1999/xlink" x="0px" y="0px"
	 width="800px" height="336.528px" viewBox="0 0 800 336.528" enable-background="new 0 0 800 336.528" xml:space="preserve">
<g>
	<g>
		<rect x="262.557" fill="#FFFFFF" width="147.894" height="177.183"/>
		<polygon fill="#016C3D" points="301.961,161.034 282.224,119.674 323.546,119.674 328.608,92.274 383.479,168.198 357.532,54.122 
			386.476,68.104 409.678,0 262.563,0 262.563,177.183 289.222,177.183 		"/>
		<polygon fill="#B22F37" points="538.428,119.674 497.085,119.674 492.04,92.274 437.134,168.198 463.104,54.122 434.174,68.104 
			410.951,0 410.319,0 410.319,177.183 531.414,177.183 518.673,161.037 		"/>
	</g>
	<g>
		<path fill="#B22F37" d="M67.514,286.772c-1.031,0-1.742,0.671-2.094,1.981c-1.564,6.882-3.354,11.533-5.385,13.997
			c-2.792,3.377-7.346,5.126-13.649,5.228H32.321c-1.676,0-2.491-0.919-2.491-2.771c0,5.842-0.05-3.757-0.149-28.787v-15.757
			c0.099-22.239,0.149-31.346,0.149-27.262c0-3.869,1.533-6.177,4.604-6.884l4.069-0.92c1.236-0.307,1.851-0.922,1.851-1.842
			c0-0.81-0.724-1.236-2.104-1.236H5.679c-1.426,0-2.119,0.427-2.119,1.236c0,1.032,0.599,1.646,1.829,1.842l5.387,0.939
			c2.715,0.511,4.091,2.762,4.091,6.752c0-4.817,0.033,4.362,0.104,27.505v15.523c-0.071,23.877-0.104,33.354-0.104,28.435
			c0,3.897-1.313,6.175-3.97,6.91c-1.199,0.317-1.818,0.921-1.818,1.842c0,0.819,0.698,1.246,2.091,1.246h52.819
			c0.968,0,1.517-0.575,1.696-1.702l3.284-23.197C69.237,287.786,68.746,286.772,67.514,286.772z"/>
		<path fill="#B22F37" d="M150.355,222.519h-22.458c-1.577,0-2.366,0.483-2.366,1.403c0,0.502,0.79,1.284,2.366,2.308
			c2.256,1.422,3.422,4.344,3.422,8.751l0.263,52.684c0,6.995-1.807,12.417-5.404,16.306c-3.059,3.19-6.822,4.771-11.312,4.771
			c-4.778,0-8.895-2.028-12.33-6.073c-3.419-4.057-5.125-9.545-5.125-16.529l0.145-52.701c0-3.999,1.399-6.297,4.192-6.901
			l4.079-0.939c1.231-0.094,1.84-0.651,1.84-1.675c0-0.92-0.703-1.403-2.119-1.403H74.561c-1.403,0-2.097,0.483-2.097,1.403
			c0,1.023,0.612,1.581,1.838,1.675l4.057,0.939c2.832,0.604,4.217,2.855,4.217,6.752l0.512,53.938
			c0.175,19.98,10.612,29.97,31.275,29.97c18.208,0,27.494-9.989,27.85-29.97l0.919-53.789c0.111-3.691,1.565-5.991,4.475-6.901
			l3.021-0.939c1.217-0.391,1.83-0.978,1.83-1.675C152.457,223.002,151.767,222.519,150.355,222.519z"/>
		<path fill="#B22F37" d="M263.374,311.662l-5.104-0.911c-2.905-0.539-4.328-2.772-4.328-6.78c0,5.646-0.035-3.618-0.159-27.802
			v-15.067c0.124-21.412,0.159-30.156,0.159-26.268c0-4.828,0.539-7.869,1.61-9.162c1.11-1.275,1.651-1.954,1.651-2.064
			c0-0.717-0.57-1.088-1.695-1.088h-14.465c-1.043,0-1.851,0.669-2.364,2.019l-25.856,61.453l-25.233-62.068
			c-0.355-0.92-1.052-1.403-2.112-1.403h-22.459c-1.386,0-2.091,0.427-2.091,1.236c0,1.032,0.658,1.646,1.964,1.842l5.646,0.939
			c2.793,0.39,4.212,2.65,4.212,6.752c0,11.6-0.456,35.094-1.326,70.541c-0.093,4.001-1.485,6.288-4.207,6.921l-4.051,0.911
			c-1.215,0.317-1.839,0.921-1.839,1.842c0,0.819,0.684,1.246,2.087,1.246h20.765c1.401,0,2.107-0.427,2.107-1.246
			c-2.107-2.659-3.22-6.398-3.29-11.227l-1.074-50.701c0-0.512,0.187-0.827,0.521-0.93c0.438-0.205,0.773-0.038,0.926,0.483
			l23.681,59.919c0.248,0.613,1.019,0.931,2.214,0.931c1.225,0,1.96-0.317,2.229-0.931l25.622-60.543
			c0.274-0.715,0.704-1.015,1.299-0.938c0.519,0.121,0.776,0.53,0.776,1.227v53.036c0,4.001-1.392,6.288-4.189,6.921l-4.05,0.911
			c-1.249,0.317-1.851,0.921-1.851,1.842c0,0.819,0.695,1.246,2.097,1.246h32.175c1.425,0,2.125-0.427,2.125-1.246
			C265.499,312.48,264.798,311.867,263.374,311.662z"/>
		<path fill="#B22F37" d="M328.087,263.723c-0.369-0.103-0.538-0.474-0.538-1.079c0.095-0.511,0.367-0.874,0.801-1.06
			c2.879-1.749,5.24-4.326,7.072-7.701c1.851-3.378,2.766-7.023,2.766-10.921c0-5.627-1.758-10.445-5.251-14.436
			c-3.514-3.989-8.009-6.008-13.523-6.008h-45.063c-1.484,0-2.251,0.558-2.251,1.711c0,1.032,0.691,1.637,1.98,1.832l5.407,0.939
			c2.688,0.501,4.067,2.745,4.067,6.753c0-4.623,0.027,4.288,0.12,26.741v15.347c-0.093,23.467-0.12,32.807-0.12,27.987
			c0,4.001-1.327,6.288-3.965,6.921l-4.078,0.911c-1.198,0.317-1.817,0.968-1.817,1.99c0,0.734,0.7,1.098,2.106,1.098h43.34
			c7.181,0,13.097-2.594,17.739-7.774c4.621-5.183,6.974-11.451,6.974-18.818c0-5.654-1.488-10.724-4.4-15.226
			C336.497,268.429,332.73,265.36,328.087,263.723z M298.502,232.369c0-2.251,0.715-3.377,2.117-3.377h9.734
			c3.672,0,6.68,1.293,9.06,3.852c2.355,2.548,3.549,6.344,3.549,11.346c0,4.838-1.047,9.061-3.148,12.688
			c-2.091,3.646-4.315,5.45-6.674,5.45h-12.806c-1.205,0-1.832-0.697-1.832-2.149V232.369z M312.176,307.978
			c-4.191,0-7.172-0.325-8.934-0.919c-3.15-1.015-4.739-3.174-4.739-6.429v-29.856c0-1.536,0.627-2.289,1.86-2.289h15.291
			c3.229,0,6.147,1.888,8.772,5.655c2.785,4.084,4.177,8.984,4.177,14.688C328.603,301.608,323.122,307.978,312.176,307.978z"/>
		<path fill="#B22F37" d="M416.287,286.772c-1.02,0-1.734,0.671-2.081,1.981c-1.652,6.882-3.453,11.533-5.386,13.997
			c-2.907,3.479-7.454,5.228-13.672,5.228h-16.03c-1.644,0-2.474-0.919-2.474-2.771v-32.731c0.138-0.604,0.378-1.022,0.636-1.236
			l23.388,0.763c0.886,0,1.308-0.502,1.308-1.526v-7.682c0-1.023-0.422-1.545-1.308-1.545l-22.987,0.782
			c-0.54-0.317-0.898-0.671-1.036-1.089v-28.425c0-2.148,0.949-3.219,2.857-3.219h13.157c5.328,0,9.211,1.061,11.624,3.145
			c2.415,2.121,4.795,6.586,7.15,13.459c0.552,1.414,1.191,2.14,1.979,2.14c0.875,0,1.284-0.615,1.187-1.86l-1.329-21.813
			c-0.091-1.209-0.549-1.85-1.439-1.85h-59.372c-1.408,0-2.098,0.52-2.098,1.544c0,1.041,0.652,1.626,1.971,1.869l5.134,0.893
			c2.794,0.521,4.193,2.735,4.193,6.613c0-4.706,0.05,4.464,0.115,27.504v15.524c-0.065,23.886-0.115,33.363-0.115,28.434
			c0,3.795-1.302,6.026-3.956,6.762c-1.203,0.317-1.812,0.921-1.812,1.842c0,0.819,0.693,1.246,2.094,1.246h54.76
			c0.945,0,1.542-0.575,1.714-1.702l3.283-23.197C418.02,287.786,417.539,286.772,416.287,286.772z"/>
		<path fill="#B22F37" d="M506.244,309.96c-3.343,0.325-5.184,0.464-5.534,0.464c-2.175,0-3.983-1.162-5.387-3.534
			c-3.229-5.935-6.457-11.887-9.714-17.82c-4.101-7.377-7.791-13.414-11.048-18.129c-0.437-0.726-0.37-1.135,0.147-1.237
			c5.609-1.432,10.117-4.428,13.538-8.984c3.403-4.567,5.121-9.971,5.121-16.223c0-6.342-2.033-11.607-6.107-15.747
			c-4.087-4.148-9.402-6.23-15.959-6.23h-43.1c-1.476,0-2.247,0.558-2.247,1.711c0,1.116,0.676,1.795,2.001,2l5.243,0.771
			c2.703,0.391,4.066,2.643,4.066,6.753c0-4.707,0.041,4.186,0.128,26.741v15.514c-0.087,24.072-0.128,33.662-0.128,28.742
			c0,3.897-1.315,6.175-3.944,6.91c-1.476,0.41-2.214,1.023-2.214,1.842c0,0.829,0.68,1.246,2.092,1.246h25.742
			c1.416,0,2.104-0.417,2.104-1.246c0-0.836-1.496-1.758-4.469-2.79c-2.975-1.023-4.461-3.478-4.461-7.414l-0.124-29.754
			c0-1.312,0.545-1.99,1.693-1.99h7.217c1.495,0,2.897,1.45,4.226,4.306l16.545,37.337c0.447,1.012,1.194,1.552,2.225,1.552h12.346
			c3.777,0,7.228-0.417,10.389-1.246c0.946-0.205,1.267-0.874,0.915-2.009C507.546,310.388,507.099,309.867,506.244,309.96z
			 M459.995,265.417h-6.311c-1.148,0-1.693-0.726-1.693-2.167l0.124-31.336c0-1.955,0.871-2.922,2.628-2.922h10.655
			c3.32,0,6.197,1.562,8.64,4.679c2.468,3.135,3.677,7.051,3.677,11.756C477.715,258.748,471.811,265.417,459.995,265.417z"/>
		<path fill="#B22F37" d="M546.053,222.519h-32.337c-1.337,0-2.002,0.427-2.002,1.245c0,1.126,0.665,1.787,2.002,2.01l6.103,0.763
			c2.668,0.297,4.007,2.558,4.007,6.752v80.839c0,6.444-2.274,10.752-6.865,12.883l-2.853,1.403c-1.014,0.503-1.51,1.424-1.51,2.762
			c0,2.466,0.993,3.331,2.994,2.615l2.242-0.764c13.473-4.613,20.229-13.124,20.229-25.513v-74.076c0-3.878,1.462-6.186,4.42-6.901
			l3.828-0.939c1.161-0.094,1.714-0.707,1.714-1.833C548.024,222.946,547.373,222.519,546.053,222.519z"/>
		<path fill="#B22F37" d="M632.291,311.662l-3.452-0.781c-1.642-0.399-2.759-1.488-3.379-3.228L596.286,223.3
			c-0.362-1.127-2.064-1.703-5.125-1.703c-2.905,0-4.524,0.576-4.851,1.703l-27.866,84.214c-0.521,1.535-1.681,2.604-3.537,3.236
			c-3.225,1.116-4.85,2.037-4.85,2.753c0,0.819,0.68,1.246,2.079,1.246h17.487c1.561,0,2.366-0.427,2.366-1.246
			c0-0.408-0.242-0.81-0.746-1.163c-0.454-0.334-0.788-0.679-0.986-0.994c-0.312-0.707-0.252-2,0.282-3.832l5.111-18.128
			c0.367-0.735,0.884-1.088,1.582-1.088h24.44c0.865,0,1.392,0.353,1.563,1.088l5,16.137c0.076,0.196,0.128,0.67,0.128,1.367
			c0,2.159-0.958,3.441-2.887,3.86l-4.077,0.911c-1.488,0.317-2.248,0.921-2.248,1.842c0,0.819,0.724,1.246,2.131,1.246h31.113
			c1.416,0,2.124-0.427,2.124-1.246C634.521,312.583,633.77,311.979,632.291,311.662z M599.84,281.693h-20.629
			c-0.78,0-1.075-0.521-0.78-1.553l9.954-34.089c0.104-0.41,0.257-0.625,0.523-0.625c0.376,0,0.595,0.215,0.678,0.625l11.026,34.089
			C600.966,281.172,600.699,281.693,599.84,281.693z"/>
		<path fill="#B22F37" d="M697.929,286.772c-0.775,0-1.32,0.455-1.579,1.385c-2.451,8.261-4.726,13.675-6.824,16.231
			c-3.078,3.703-7.953,5.58-14.584,5.58c-7.366,0-12.698-4.594-16.026-13.849c-2.361-6.576-3.538-14.993-3.538-25.253
			c0-28.965,6.023-43.42,18.122-43.42c6.225,0,11.076,1.88,14.586,5.684c3.148,3.396,5.379,8.716,6.69,15.999
			c0.267,1.403,0.788,2.14,1.574,2.14c0.967,0,1.455-0.874,1.455-2.613l0.124-23.663c0-1.35-0.724-2.047-2.158-2.149
			c-1.439-0.084-5.101-0.512-10.981-1.236c-4.556-0.614-8.393-0.912-11.529-0.912c-10,0-18.221,4.381-24.66,13.143
			c-6.434,8.79-9.67,20.361-9.67,34.714c0,15.607,3.482,27.699,10.396,36.32c6.4,7.906,14.86,11.851,25.355,11.851
			c2.01,0,7.904-0.717,17.741-2.158c1.745-0.306,2.91-0.502,3.535-0.613c1.392-0.215,2.158-0.939,2.232-2.158l1.03-22.398
			C699.328,287.646,698.891,286.772,697.929,286.772z"/>
		<path fill="#B22F37" d="M795.201,311.662l-1.971-0.167c-3.419-0.307-6.857-2.707-10.377-7.209l-32.298-42.125l27.428-30.564
			c3.094-3.479,6.095-5.534,9.096-6.147c1.21-0.095,1.828-0.661,1.828-1.693c0-0.81-0.714-1.236-2.117-1.236h-23.768
			c-1.507,0-2.225,0.483-2.225,1.403c0,0.308,0.655,0.968,1.963,2.01c1.045,0.8,1.577,1.768,1.577,2.91
			c0,1.237-0.579,2.54-1.712,4.001l-23.247,29.633v-29.038c0-3.582,1.551-5.889,4.598-6.901c1.839-0.512,2.811-0.848,2.894-0.939
			c1.149-0.391,1.687-1.024,1.687-1.842c0-0.81-0.685-1.236-2.077-1.236h-31.288c-1.384,0-2.092,0.427-2.092,1.236
			c0,1.135,0.672,1.796,1.987,2.019l5.233,0.763c2.831,0.39,4.206,2.65,4.206,6.752v70.541c0,4.001-1.375,6.288-4.206,6.921
			l-4.067,0.911c-1.208,0.094-1.841,0.727-1.841,1.842c0,0.819,0.703,1.246,2.104,1.246h31.011c1.398,0,2.091-0.427,2.091-1.246
			c0-1.115-0.609-1.748-1.845-1.842l-4.06-0.911c-2.895-0.633-4.334-2.92-4.334-6.921V274.01l2.764-2.604l23.396,34.415
			c0.427,0.725,0.555,1.487,0.368,2.315c-0.167,0.912-0.576,1.479-1.19,1.692l-4.862,1.832c-1.212,0.502-1.808,1.126-1.808,1.842
			c0,0.819,0.691,1.246,2.075,1.246h35.212c1.4,0,2.096-0.427,2.096-1.246C797.429,312.388,796.697,311.755,795.201,311.662z"/>
	</g>
</g>
</svg>
